# xmcd CD database file
#
# Track frame offsets:
#	187
#	19350
#	38887
#	56670
#	76485
#	96305
#	110310
#
# Disc length: 2010 seconds
#
# Revision: 9
# Processed by: cddbd v1.5.2PL0 Copyright (c) Steve Scherf et al.
# Submitted via: CDex 1.51
#
DISCID=5607d807
DTITLE=Manowar - Hail To England
DYEAR=1984
DGENRE=Heavy Metal
TTITLE0=Blood Of My Enemies
TTITLE1=Each Dawn I Die
TTITLE2=Kill With Power
TTITLE3=Hail To England
TTITLE4=Army Of The Immortals
TTITLE5=Black Arrows
TTITLE6=Bridge Of Death
EXTD=1984\n\nManowar:\nRoss The Boss - Guitars, Keyboards\nJoey De Maio - Bass\nEric Adams - Vocals\nScott Columbus - Drums\n\nProduced by Jack Richardson.\n\nAll music and lyrics by Joey DeMaio.\n\n@1984 Geffen Records\n YEAR: 1984
EXTT0=
EXTT1=
EXTT2=
EXTT3=
EXTT4=
EXTT5=
EXTT6=
PLAYORDER=
